<?xml version="1.0" encoding="utf-8"?>
<!-- Generator: Adobe Illustrator 16.0.0, SVG Export Plug-In . SVG Version: 6.00 Build 0)  -->
<!DOCTYPE svg PUBLIC "-//W3C//DTD SVG 1.1//EN" "http://www.w3.org/Graphics/SVG/1.1/DTD/svg11.dtd">
<svg version="1.1" id="圖層_1" xmlns="http://www.w3.org/2000/svg" xmlns:xlink="http://www.w3.org/1999/xlink" x="0px" y="0px"
	 width="50px" height="50px" viewBox="0 0 50 50" enable-background="new 0 0 50 50" xml:space="preserve">
<path fill="#FFFFFF" d="M25,0.691c-13.424,0-24.307,10.884-24.307,24.306c0,13.426,10.882,24.312,24.307,24.312
	c13.426,0,24.307-10.886,24.307-24.312C49.307,11.575,38.426,0.691,25,0.691z M30.391,5.105c3.107,0.841,5.92,2.386,8.26,4.461
	c-0.154-0.053-0.32-0.079-0.492-0.079c-0.883,0-1.598,0.716-1.598,1.598c0,0.16,0.023,0.31,0.064,0.456
	c-1.982-1.712-4.348-2.99-6.949-3.696c0.711-0.161,1.24-0.796,1.24-1.556C30.916,5.821,30.715,5.399,30.391,5.105z M26.029,13.026
	c0,0,0.547,1.166-2.057,1.03c0,0-1.919-1.098-2.948,0.275c0,0,0.069,1.094-0.891,0.82c0,0-1.645-0.067-2.056,1.026
	c0,0-1.987,0.687-2.947-0.547c0,0-1.507-2.262,0.343-2.739c0,0,1.234,0.478,1.439,1.231c0,0,0.752-2.124-1.714-2.054
	c0,0-0.321,0.071-0.717,0.267c1.661-1.376,3.599-2.434,5.713-3.076C19.97,9.354,19.799,9.468,19.722,9.6
	C19.722,9.6,26.713,9.806,26.029,13.026z M26.506,17.002c0,0,1.92-0.892,1.92-1.714c0,0,3.359,4.595,2.4,6.444
	c0,0-0.479,1.919-2.193,0.752c0,0-0.756-1.437,0.41-2.261c0,0,0.137-0.479-1.303-0.341c0,0-1.711,1.984-2.056,1.984
	c0,0-1.165,0.822,0-0.753C25.685,21.114,27.672,20.633,26.506,17.002z M25.411,26.395c1.507-0.07,0.342-2.057,0.342-2.057
	c-0.069-1.031,0.752-0.618,0.752-0.618c1.029-0.824,1.166,1.166,1.166,1.166c0.893,3.974-4.044,3.837-4.044,3.837
	c-3.426-0.205-2.946-3.768-2.946-3.768c0.686-1.784,3.427-2.677,3.427-2.677c-0.343,0.206-0.686,2.47-0.686,2.47
	C23.082,26.395,25.411,26.395,25.411,26.395z M13.279,15.768c0,0,1.098,2.057,4.113,1.51c0,0,0.342,1.027,0.548-0.069l0.821-0.754
	l0.618,0.343l0.686-0.343c0,0,0.205,0.893,1.37-0.068c0,0,3.905,0.822,3.153,2.125c0,0,0.959,1.575-1.919,1.918
	c0,0-4.318,0.139-5.756,2.742c0,0-2.057,2.537-4.25,1.233c0,0-1.987-0.893-0.273-2.879c0,0,0.959-0.069,0.959,0.549
	c0,0,1.233-2.879-1.578-3.014c0,0-3.836,0.203-2.193,5.07c0,0-1.096,8.293,3.701,11.172c0,0,1.372,1.304,2.125,1.575
	c0,0,1.028,0.204-0.136,0.618c0,0-0.069,0.204,0.89,0.204c0,0,2.537,0.688,2.81,1.989c0,0,0.961-0.893-0.479-1.989
	c0,0,0.96-1.712,0.96-2.879c0,0,1.232,1.373,0.617-0.204c0,0-1.577-1.989-0.892-3.357c0,0,0.686,1.645,2.193,1.164
	c0,0,0.274,2.741,2.26,3.905l-0.341,2.126c0,0-2.263,0.891-2.057,1.371c0,0,0.274,0.822,1.987-0.069c0,0,1.577,0.204,1.988,1.097
	c0,0,1.781-0.205-0.823-1.78l0.55-2.332c0,0,0.204,0.48,0.821,0.548c0,0,0.893-0.411,1.233-0.96c0,0-3.289-1.094-2.671-2.741
	c0,0,1.37,0.48,2.398,0.274c0,0,0.754,1.782,1.781,1.782l0.207,0.55c0,0-0.137,0.958,0.549,0.888l-0.412,0.893
	c0,0-2.262,1.301-1.438,2.744c0,0,0.82-1.234,1.506-1.511c0,0,0.48,0.823,1.441-0.135c0,0,0.342,0.616,1.025,0.411
	c0,0,0.617-0.344-0.822-1.097c0,0-0.547-0.892,0.344-1.099l0.617-1.164l0.41,0.137l0.342-0.479c0,0,1.92-0.139,1.713-1.715
	c0,0-1.439,0.962-2.533,0.344c0,0-1.988-1.026-0.754-1.235c0,0,3.768-1.78,4.934-4.108c0,0,0.754,2.466,2.535,1.85
	c0,0,2.193-0.276,1.92-2.333c0,0-1.166,1.234-1.92,0.96c0,0-1.85-2.81,1.646-8.089c0,0,1.166-2.328,0.137-3.084
	c0,0-0.617,0.62-1.098,0.345c0,0-0.549-0.823-1.301-0.481c0,0-1.027-5.893-5.621-7.948c0,0-4.66-1.987-5.141-1.234
	c0,0,7.195,0.753,8.842,8.294c0,0-0.137,0.617-0.893,0.136c0,0-1.164-0.686-1.164,0.411c0,0,3.154,4.936,2.535,6.444
	c0,0-1.779-1.648-2.672,0.342c0,0,0.754,6.099-2.604,6.58c0,0-3.908,2.809-7.609-1.097c0,0,4.113,1.371,5.347-1.234
	c0,0,2.947-1.029,2.947-4.249c0,0-1.303,0.958-1.508,0.479c0,0,3.219-1.577,2.33-5.826c0,0-1.92-4.181-3.359-5.415
	c0,0,0.412-4.523-6.51-5.07c0,0-0.675,0.038-1.36,0.167C22.354,8.71,23.658,8.551,25,8.551c9.11,0,16.497,7.386,16.497,16.492
	c0,9.111-7.387,16.493-16.497,16.493S8.505,34.154,8.505,25.043c0-4.519,1.82-8.617,4.769-11.599
	C12.979,13.997,12.886,14.75,13.279,15.768z M14.926,31.189c0,0-1.302-4.11,0.684-4.935c0,0,0.206,0.62,0.755,0.344
	c0,0-0.686,1.85,0.891,3.357c0,0-1.44,1.166-0.48,2.261c0,0,1.301,1.233,1.096,2.057c0,0,0.343,2.537-0.411,2.604
	c0,0-2.741-0.684-3.976-2.328c-0.136-0.207-3.152-3.221-1.302-8.433c0,0,0.411,0.412,0.959,0.412
	C13.143,26.529,12.251,30.025,14.926,31.189z M25,4.393c1.323,0,2.612,0.127,3.864,0.361c-0.66,0.198-1.145,0.811-1.145,1.535
	c0,0.504,0.232,0.954,0.598,1.245C27.242,7.331,26.133,7.226,25,7.226c-1.503,0-2.96,0.185-4.353,0.535
	c0.302-0.291,0.494-0.7,0.494-1.154c0-0.774-0.554-1.421-1.287-1.566C21.499,4.617,23.223,4.393,25,4.393z M18.423,5.464
	c-0.298,0.29-0.483,0.696-0.483,1.143c0,0.781,0.558,1.43,1.295,1.57c-2.405,0.822-4.582,2.145-6.4,3.849
	c0.035-0.136,0.056-0.27,0.056-0.414c0-0.883-0.717-1.6-1.599-1.6c-0.188,0-0.367,0.035-0.534,0.095
	C12.919,8.039,15.526,6.438,18.423,5.464z M9.772,11.116c-0.05,0.155-0.08,0.323-0.08,0.495c0,0.884,0.717,1.599,1.601,1.599
	c0.153,0,0.301-0.023,0.441-0.064c-1.641,1.831-2.91,4.003-3.686,6.394c-0.236-0.588-0.812-1.006-1.485-1.006
	c-0.589,0-1.103,0.319-1.38,0.793C6.07,16.23,7.661,13.431,9.772,11.116z M4.937,29.717c-0.354-1.515-0.544-3.093-0.544-4.72
	c0-1.664,0.2-3.282,0.573-4.837c0.015,0.87,0.723,1.572,1.599,1.572c0.375,0,0.72-0.133,0.993-0.347
	c-0.247,1.18-0.376,2.404-0.376,3.657c0,1.433,0.169,2.822,0.487,4.153c-0.294-0.344-0.73-0.567-1.219-0.567
	C5.747,28.629,5.151,29.087,4.937,29.717z M10.25,39.388c-2.161-2.217-3.829-4.919-4.821-7.929c0.276,0.232,0.632,0.372,1.02,0.372
	c0.797,0,1.457-0.583,1.579-1.348c0.844,2.638,2.286,5.007,4.166,6.95c-0.127-0.033-0.26-0.052-0.398-0.052
	c-0.883,0-1.6,0.716-1.6,1.597C10.195,39.122,10.216,39.257,10.25,39.388z M18.854,43.686c0,0.439,0.177,0.839,0.464,1.125
	c-2.935-0.839-5.599-2.31-7.841-4.264c0.103,0.021,0.209,0.034,0.318,0.034c0.883,0,1.599-0.718,1.599-1.603
	c0-0.165-0.024-0.323-0.071-0.472c1.913,1.659,4.183,2.918,6.679,3.646C19.339,42.348,18.854,42.961,18.854,43.686z M25,45.605
	c-1.386,0-2.741-0.14-4.051-0.397c0.641-0.209,1.104-0.812,1.104-1.522c0-0.455-0.19-0.864-0.496-1.154
	c1.113,0.218,2.265,0.334,3.442,0.334c1.557,0,3.067-0.202,4.504-0.573c-0.283,0.285-0.461,0.683-0.461,1.119
	c0,0.728,0.484,1.339,1.148,1.536C28.533,45.375,26.793,45.605,25,45.605z M31.877,44.43c0.229-0.277,0.365-0.63,0.365-1.019
	c0-0.775-0.555-1.422-1.289-1.565c2.666-0.946,5.043-2.507,6.955-4.518c-0.088,0.198-0.137,0.419-0.137,0.646
	c0,0.885,0.715,1.601,1.598,1.601c0.072,0,0.143-0.007,0.211-0.014C37.432,41.716,34.807,43.393,31.877,44.43z M40.965,38.025
	c0.002-0.016,0.006-0.032,0.006-0.051c0-0.881-0.717-1.599-1.602-1.599c-0.291,0-0.563,0.081-0.797,0.216
	c1.705-2.003,2.975-4.384,3.662-7.003c0.178,0.684,0.803,1.189,1.545,1.189c0.443,0,0.846-0.181,1.137-0.476
	C44.154,33.17,42.789,35.795,40.965,38.025z M43.779,27.581c-0.494,0-0.939,0.224-1.232,0.576c0.178-1.011,0.273-2.051,0.273-3.114
	c0-1.49-0.188-2.938-0.531-4.325c0.252,0.162,0.551,0.261,0.875,0.261c0.881,0,1.598-0.717,1.598-1.6c0-0.882-0.717-1.6-1.598-1.6
	c-0.67,0-1.242,0.411-1.48,0.991c-0.869-2.31-2.205-4.391-3.891-6.129c0.117,0.027,0.238,0.043,0.365,0.043
	c0.883,0,1.6-0.716,1.6-1.6c0-0.203-0.039-0.397-0.109-0.579c3.682,3.725,5.957,8.842,5.957,14.491c0,1.246-0.109,2.466-0.32,3.648
	C45.064,28.027,44.475,27.581,43.779,27.581z"/>
</svg>
